REM DIRINDEX 1\2\5,1\2\6,1\2\7,1\2\8,1\3\9,1\3\10,1\3\11,1\4\12,1\4\13,1\4\14,1\4\15,1\4\16
REM DIRNAME folder01,folder02,folder03,folder04,folder05,folder06,folder07,folder08,folder09,folder10,folder11,folder12,folder13,folder14,folder15,folder16
TITLE ""
FILE "1200_sec05_1661_1670.mp3" MP3
  TRACK 01 AUDIO
    TITLE "0:"
    INDEX 01 00:00:00
  TRACK 02 AUDIO
    TITLE "12:cjc034_10395"
    INDEX 01 00:00:17
  TRACK 03 AUDIO
    TITLE "0:"
    INDEX 01 00:01:30
  TRACK 04 AUDIO
    TITLE "13:cjc034_10396"
    INDEX 01 00:01:62
  TRACK 05 AUDIO
    TITLE "0:"
    INDEX 01 00:04:68
  TRACK 06 AUDIO
    TITLE "14:cjc034_10397"
    INDEX 01 00:05:24
  TRACK 07 AUDIO
    TITLE "0:"
    INDEX 01 00:06:37
  TRACK 08 AUDIO
    TITLE "15:cjc034_10398"
    INDEX 01 00:06:69
  TRACK 09 AUDIO
    TITLE "0:"
    INDEX 01 00:11:50
  TRACK 10 AUDIO
    TITLE "12:cjc034_10399"
    INDEX 01 00:13:08
  TRACK 11 AUDIO
    TITLE "0:"
    INDEX 01 00:17:31
  TRACK 12 AUDIO
    TITLE "13:cjc034_10400"
    INDEX 01 00:17:63
  TRACK 13 AUDIO
    TITLE "0:"
    INDEX 01 00:21:25
  TRACK 14 AUDIO
    TITLE "14:cjc034_10401"
    INDEX 01 00:21:57
  TRACK 15 AUDIO
    TITLE "0:"
    INDEX 01 00:26:07
  TRACK 16 AUDIO
    TITLE "15:cjc034_10402"
    INDEX 01 00:26:38
  TRACK 17 AUDIO
    TITLE "0:"
    INDEX 01 00:30:12
  TRACK 18 AUDIO
    TITLE "12:cjc034_10403"
    INDEX 01 00:31:47
  TRACK 19 AUDIO
    TITLE "0:"
    INDEX 01 00:32:62
  TRACK 20 AUDIO
    TITLE "13:cjc034_10404"
    INDEX 01 00:33:19
  TRACK 21 AUDIO
    TITLE "0:"
    INDEX 01 00:36:40
  TRACK 22 AUDIO
    TITLE "14:cjc034_10405"
    INDEX 01 00:36:72
  TRACK 23 AUDIO
    TITLE "0:"
    INDEX 01 00:38:12
  TRACK 24 AUDIO
    TITLE "15:cjc034_10406"
    INDEX 01 00:38:45
  TRACK 25 AUDIO
    TITLE "0:"
    INDEX 01 00:42:45
  TRACK 26 AUDIO
    TITLE "12:cjc034_10407"
    INDEX 01 00:44:03
  TRACK 27 AUDIO
    TITLE "0:"
    INDEX 01 00:45:30
  TRACK 28 AUDIO
    TITLE "13:cjc034_10408"
    INDEX 01 00:45:63
  TRACK 29 AUDIO
    TITLE "0:"
    INDEX 01 00:51:54
  TRACK 30 AUDIO
    TITLE "14:cjc034_10409"
    INDEX 01 00:52:10
  TRACK 31 AUDIO
    TITLE "0:"
    INDEX 01 00:53:39
  TRACK 32 AUDIO
    TITLE "15:cjc034_10410"
    INDEX 01 00:53:68
  TRACK 33 AUDIO
    TITLE "0:"
    INDEX 01 00:57:41
  TRACK 34 AUDIO
    TITLE "16:cjc034_10411"
    INDEX 01 00:59:00
  TRACK 35 AUDIO
    TITLE "0:"
    INDEX 01 01:02:30
  TRACK 36 AUDIO
    TITLE "12:cjc034_10412"
    INDEX 01 01:03:35
  TRACK 37 AUDIO
    TITLE "0:"
    INDEX 01 01:04:60
  TRACK 38 AUDIO
    TITLE "13:cjc034_10413"
    INDEX 01 01:05:15
  TRACK 39 AUDIO
    TITLE "0:"
    INDEX 01 01:06:59
  TRACK 40 AUDIO
    TITLE "14:cjc034_10414"
    INDEX 01 01:07:14
  TRACK 41 AUDIO
    TITLE "0:"
    INDEX 01 01:08:36
  TRACK 42 AUDIO
    TITLE "15:cjc034_10415"
    INDEX 01 01:08:70
  TRACK 43 AUDIO
    TITLE "0:"
    INDEX 01 01:13:04
  TRACK 44 AUDIO
    TITLE "12:cjc034_10416"
    INDEX 01 01:14:39
  TRACK 45 AUDIO
    TITLE "0:"
    INDEX 01 01:15:52
  TRACK 46 AUDIO
    TITLE "13:cjc034_10417"
    INDEX 01 01:16:11
  TRACK 47 AUDIO
    TITLE "0:"
    INDEX 01 01:19:50
  TRACK 48 AUDIO
    TITLE "14:cjc034_10418"
    INDEX 01 01:20:10
  TRACK 49 AUDIO
    TITLE "0:"
    INDEX 01 01:21:23
  TRACK 50 AUDIO
    TITLE "15:cjc034_10419"
    INDEX 01 01:21:55
  TRACK 51 AUDIO
    TITLE "0:"
    INDEX 01 01:25:72
  TRACK 52 AUDIO
    TITLE "12:cjc034_10420"
    INDEX 01 01:27:28
  TRACK 53 AUDIO
    TITLE "0:"
    INDEX 01 01:28:63
  TRACK 54 AUDIO
    TITLE "13:cjc034_10421"
    INDEX 01 01:29:19
  TRACK 55 AUDIO
    TITLE "0:"
    INDEX 01 01:30:56
  TRACK 56 AUDIO
    TITLE "14:cjc034_10422"
    INDEX 01 01:31:12
  TRACK 57 AUDIO
    TITLE "0:"
    INDEX 01 01:32:47
  TRACK 58 AUDIO
    TITLE "15:cjc034_10423"
    INDEX 01 01:33:03
  TRACK 59 AUDIO
    TITLE "0:"
    INDEX 01 01:36:19
  TRACK 60 AUDIO
    TITLE "12:cjc034_10424"
    INDEX 01 01:37:56
  TRACK 61 AUDIO
    TITLE "0:"
    INDEX 01 01:39:02
  TRACK 62 AUDIO
    TITLE "13:cjc034_10425"
    INDEX 01 01:39:33
  TRACK 63 AUDIO
    TITLE "0:"
    INDEX 01 01:40:62
  TRACK 64 AUDIO
    TITLE "14:cjc034_10426"
    INDEX 01 01:41:22
  TRACK 65 AUDIO
    TITLE "0:"
    INDEX 01 01:42:43
  TRACK 66 AUDIO
    TITLE "15:cjc034_10427"
    INDEX 01 01:42:73
  TRACK 67 AUDIO
    TITLE "0:"
    INDEX 01 01:46:35
  TRACK 68 AUDIO
    TITLE "12:cjc034_10428"
    INDEX 01 01:47:66
  TRACK 69 AUDIO
    TITLE "0:"
    INDEX 01 01:49:32
  TRACK 70 AUDIO
    TITLE "13:cjc034_10429"
    INDEX 01 01:49:65
  TRACK 71 AUDIO
    TITLE "0:"
    INDEX 01 01:52:63
  TRACK 72 AUDIO
    TITLE "14:cjc034_10430"
    INDEX 01 01:53:20
  TRACK 73 AUDIO
    TITLE "0:"
    INDEX 01 01:54:60
  TRACK 74 AUDIO
    TITLE "15:cjc034_10431"
    INDEX 01 01:55:16
  TRACK 75 AUDIO
    TITLE "0:"
    INDEX 01 02:00:02
  TRACK 76 AUDIO
    TITLE "12:cjc034_10432"
    INDEX 01 02:01:35
  TRACK 77 AUDIO
    TITLE "0:"
    INDEX 01 02:02:71
  TRACK 78 AUDIO
    TITLE "13:cjc034_10433"
    INDEX 01 02:03:28
  TRACK 79 AUDIO
    TITLE "0:"
    INDEX 01 02:04:49
  TRACK 80 AUDIO
    TITLE "14:cjc034_10434"
    INDEX 01 02:05:09
  TRACK 81 AUDIO
    TITLE "0:"
    INDEX 01 02:06:42
  TRACK 82 AUDIO
    TITLE "15:cjc034_10435"
    INDEX 01 02:07:00
  TRACK 83 AUDIO
    TITLE "0:"
    INDEX 01 02:10:36
